Coordinates
version=1
nRows=5
nColumns=46
inDegrees=yes

Units are S.I. units (second, meters, Newtons, ...)
Angles are in degrees.

endheader
time	pelvis_tilt	pelvis_list	pelvis_rotation	pelvis_tx	pelvis_ty	pelvis_tz	bb_angle	bb_tx	bb_ty	bb_tz	hip_flexion_r	hip_adduction_r	hip_rotation_r	knee_angle_r	knee_angle_r_beta	ankle_angle_r	subtalar_angle_r	mtp_angle_r	crank_angle_r	hip_flexion_l	hip_adduction_l	hip_rotation_l	knee_angle_l	knee_angle_l_beta	ankle_angle_l	subtalar_angle_l	mtp_angle_l	crank_angle_l	lumbar_extension	lumbar_bending	lumbar_rotation	arm_flex_r	arm_add_r	arm_rot_r	elbow_flex_r	pro_sup_r	wrist_flex_r	wrist_dev_r	arm_flex_l	arm_add_l	arm_rot_l	elbow_flex_l	pro_sup_l	wrist_flex_l	wrist_dev_l
      0.00000000	    -32.18295779	     -1.27478522	     -0.03547650	      0.05760403	      0.98167709	     -0.21241450	      0.00000000	      0.50000000	      0.00000000	      0.25000000	    102.22640460	     -8.19416764	     -3.32127593	     84.13533701	      1.46843865	      7.28957816	     -3.88428261	      0.00000000	      0.00000000	     70.65401287	     -9.73952376	     -0.95507771	     74.71633811	      1.30404611	     -3.69589980	     -8.54687312	      0.00000000	      0.00000000	    -27.57492162	      1.97049456	      0.84553922	     88.24510735	     -4.97199647	     53.01388605	     20.03479505	     40.01607479	      0.00000000	      0.00000000	     86.69318915	    -12.96814707	     55.63899588	     24.66841053	     41.32382943	      0.00000000	      0.00000000
      0.00500000	    -32.26055011	     -1.36685889	     -0.09103279	      0.05743935	      0.98142606	     -0.21234614	      0.00000000	      0.50000000	      0.00000000	      0.25000000	    102.32237886	     -8.12986529	     -3.39696460	     84.16407739	      1.46894026	      7.32517086	     -3.90348373	      0.00000000	      0.00000000	     70.77679478	     -9.82979541	     -0.85355738	     74.74162816	      1.30448750	     -3.59859669	     -8.39852727	      0.00000000	      0.00000000	    -27.46362995	      2.06805597	      0.93278751	     88.24560002	     -4.46321247	     51.95986644	     19.76435838	     37.68928854	      0.00000000	      0.00000000	     86.39034148	    -12.37209736	     53.10912142	     24.56467728	     39.60057844	      0.00000000	      0.00000000
      0.01000000	    -32.22734186	     -1.37391143	     -0.07289419	      0.05744276	      0.98148100	     -0.21240412	      0.00000000	      0.50000000	      0.00000000	      0.25000000	    102.31652250	     -8.16893141	     -3.40881491	     84.21086589	      1.46975688	      7.30151728	     -3.86184804	      0.00000000	      0.00000000	     70.72110596	     -9.79155718	     -0.84462746	     74.68339032	      1.30347106	     -3.68026972	     -8.56338201	      0.00000000	      0.00000000	    -27.52060593	      2.06025175	      0.94541005	     88.24795438	     -5.10867427	     53.57304349	     20.48775902	     38.00841889	      0.00000000	      0.00000000	     86.71052668	    -12.89520120	     55.82715112	     24.72863025	     40.18486688	      0.00000000	      0.00000000
      0.01500000	    -32.15834879	     -1.25714658	     -0.06801919	      0.05760791	      0.98175596	     -0.21245125	      0.00000000	      0.50000000	      0.00000000	      0.25000000	    102.27912098	     -8.19370054	     -3.30637081	     84.26581530	      1.47071592	      7.34933769	     -3.81094280	      0.00000000	      0.00000000	     70.52465818	     -9.72443831	     -0.98775549	     74.53503443	      1.30088176	     -3.70701913	     -8.63055777	      0.00000000	      0.00000000	    -27.59995888	      1.94817596	      0.90573868	     88.21134437	     -4.68862971	     51.99170912	     20.02859016	     38.16805997	      0.00000000	      0.00000000	     86.58316854	    -12.48896325	     54.26201589	     24.35120327	     40.19509182	      0.00000000	      0.00000000
      0.02000000	    -32.17290572	     -1.32486883	     -0.13276915	      0.05760429	      0.98137460	     -0.21228932	      0.00000000	      0.50000000	      0.00000000	      0.25000000	    102.35439425	     -8.12742542	     -3.35179047	     84.34614337	      1.47211791	      7.34018405	     -3.79441931	      0.00000000	      0.00000000	     70.47610746	     -9.80038335	     -0.92576985	     74.41537725	      1.29879335	     -3.79894705	     -8.69184941	      0.00000000	      0.00000000	    -27.56787285	      1.99975937	      0.96202343	     88.19043978	     -4.42774232	     51.65495535	     19.57143113	     38.46042643	      0.00000000	      0.00000000	     86.46517820	    -12.34507447	     53.40552062	     24.28737530	     40.36208897	      0.00000000	      0.00000000
